<svg xmlns="http://www.w3.org/2000/svg" viewBox="0 0 597.4 153.26"><defs><style>.cls-1{isolation:isolate;}.cls-2{fill:#0090e3;}.cls-3{mix-blend-mode:multiply;}.cls-4{fill:#ebeced;}.cls-5{fill:#ff4d54;}.cls-6{fill:#fff;}</style></defs><g class="cls-1"><g id="Layer_2" data-name="Layer 2"><g id="Layer_1-2" data-name="Layer 1"><path class="cls-2" d="M379.23,153.26s266-43.53,202.93-14.69"/><g class="cls-3"><path class="cls-4" d="M235.74,111.51v-.3l-25.55-76.5c-.1-.31-.2-.51-.3-.82A6,6,0,0,0,199,39.09l33.87,72.65.11.2,4.29,29-1.51-29.46Z"/><path class="cls-4" d="M305.11,33.05A5.07,5.07,0,0,0,298.63,30l-.06,0c-.91.32-1.85.61-2.77.92h0c-6.93,2.39-14,4.63-21.14,6.47a115.48,115.48,0,0,1-12.26,2.54,37.79,37.79,0,0,1-6.18.44c-1.94-.15-4.39-.2-5.38-2.21.58,2.25,3.24,2.93,5.21,3.47a39.11,39.11,0,0,0,6.45.82,118.27,118.27,0,0,0,12.91-.07c4.67-.25,9.29-.66,13.92-1.15l-28.83,64.31-3.35,29.18,6.69-28.95h0l39.44-66.14c.13-.22.26-.49.37-.73s0-.24.07-.36A5.06,5.06,0,0,0,305.11,33.05Z"/><path class="cls-4" d="M228.85,36.34a8.71,8.71,0,1,0,8.7,8.7A8.7,8.7,0,0,0,228.85,36.34Z"/><path class="cls-4" d="M273.05,60.65a5,5,0,1,0-5,5A5,5,0,0,0,273.05,60.65Z"/><path class="cls-4" d="M251.07,87a5,5,0,1,0,3.17,6.3A5,5,0,0,0,251.07,87Z"/><path class="cls-4" d="M252.86,14.72a7.85,7.85,0,1,0-9.92,5A7.85,7.85,0,0,0,252.86,14.72Z"/></g><path class="cls-5" d="M236,105.25v.3l-1.35,1c-.1,0-.7-.2-.8-.2a.56.56,0,0,1-.61-.41l-.1-.2L199.74,34.19a6,6,0,0,1,10.76-5.13c.1.3.2.5.3.8Z"/><path class="cls-5" d="M302.5,34.71l-39.31,65.93-.05.08a.67.67,0,0,1-.53.32l-2.27-1.39,31.54-70.33a6,6,0,1,1,11,4.67C302.76,34.23,302.62,34.49,302.5,34.71Z"/><path class="cls-5" d="M300.32,34.86c-8.47,1.21-16.81,2.1-25.28,2.56a117.48,117.48,0,0,1-12.73.07,38.07,38.07,0,0,1-6.35-.82c-1.94-.52-4.56-1.19-5.14-3.41,1,2,3.4,2,5.3,2.18a36.83,36.83,0,0,0,6.1-.44,111.43,111.43,0,0,0,12.07-2.5c8-2.06,15.92-4.57,23.6-7.29l.05,0a5,5,0,1,1,3.35,9.43A5.5,5.5,0,0,1,300.32,34.86Z"/><circle class="cls-2" cx="229.19" cy="40.05" r="8.58"/><circle class="cls-2" cx="267.83" cy="55.43" r="4.91"/><circle class="cls-2" cx="249.54" cy="86.03" r="4.91"/><circle class="cls-2" cx="245.5" cy="7.74" r="7.73"/><polygon class="cls-5" points="233.22 105.97 235.95 105.25 237.46 134.59 233.22 105.97"/><polygon class="cls-5" points="260.34 99.65 263.64 99.88 257.04 128.41 260.34 99.65"/><path class="cls-6" d="M42.28,121.52a39.29,39.29,0,0,1-16.41-3.47,42.32,42.32,0,0,1-13.49-9.62A45.55,45.55,0,0,1,0,76.91,45.65,45.65,0,0,1,3.29,59.55a45.07,45.07,0,0,1,9.09-14.2,42.86,42.86,0,0,1,13.49-9.59,39.44,39.44,0,0,1,16.41-3.47,39.31,39.31,0,0,1,19.24,4.83A43.32,43.32,0,0,1,76.08,50l-13.4,7.19a27,27,0,0,0-9-7.19,25.56,25.56,0,0,0-22-.4A27.43,27.43,0,0,0,22.92,56a30,30,0,0,0-5.84,9.47A31.39,31.39,0,0,0,15,76.91,30.76,30.76,0,0,0,17.12,88.4,30.26,30.26,0,0,0,23,97.83a27.23,27.23,0,0,0,8.7,6.39,25.4,25.4,0,0,0,22.06-.43,27.37,27.37,0,0,0,8.94-7.22l13.4,7.25a44,44,0,0,1-14.56,12.85A39.11,39.11,0,0,1,42.28,121.52Z"/><path class="cls-6" d="M111.54,121.52a28.57,28.57,0,0,1-15.46-4.36,32.66,32.66,0,0,1-15.27-28,33.08,33.08,0,0,1,9-23,30.64,30.64,0,0,1,9.8-7A29.53,29.53,0,0,1,127,61.11a32.4,32.4,0,0,1,11.12,11.74,34.14,34.14,0,0,1,1.75,28.89A33.19,33.19,0,0,1,133.26,112a30.71,30.71,0,0,1-9.77,7A28.62,28.62,0,0,1,111.54,121.52Zm0-15a14.09,14.09,0,0,0,8-2.4,17,17,0,0,0,5.62-6.33,19.07,19.07,0,0,0-.06-17.36,17.12,17.12,0,0,0-5.71-6.33,14.13,14.13,0,0,0-7.9-2.36,14,14,0,0,0-8,2.39,17.07,17.07,0,0,0-5.65,6.39,18.38,18.38,0,0,0-2.09,8.67A17.94,17.94,0,0,0,98,98a16.83,16.83,0,0,0,5.74,6.23A14.23,14.23,0,0,0,111.54,106.53Z"/><path class="cls-6" d="M210.54,88.15v31.78h-15V88.4a18.92,18.92,0,0,0-2-8.63,16,16,0,0,0-5.44-6.24,14,14,0,0,0-8-2.34,12.81,12.81,0,0,0-7.68,2.34,15.12,15.12,0,0,0-5,6.24,21,21,0,0,0-1.75,8.63v31.53h-15V58.47h15v7.25A23.83,23.83,0,0,1,173,59.18a19.18,19.18,0,0,1,9.67-2.43A25.39,25.39,0,0,1,197.42,61a28.35,28.35,0,0,1,9.65,11.4A36.64,36.64,0,0,1,210.54,88.15Z"/><path class="cls-6" d="M316.25,121.52a28.57,28.57,0,0,1-15.46-4.36,32.24,32.24,0,0,1-11.12-11.74,34.05,34.05,0,0,1-1.75-28.85,33.09,33.09,0,0,1,6.61-10.32,30.64,30.64,0,0,1,9.8-7,29.79,29.79,0,0,1,25.1.52,30.27,30.27,0,0,1,10.17,8.33,34.2,34.2,0,0,1,6.95,26.18H301.62a18.16,18.16,0,0,0,2.83,6.18,14.46,14.46,0,0,0,11.8,6,13.17,13.17,0,0,0,7.16-1.88,16.53,16.53,0,0,0,5.38-5.25l15.3,3.56a32.62,32.62,0,0,1-11.19,13.37A28.38,28.38,0,0,1,316.25,121.52ZM301.13,83.05h30.24a16.06,16.06,0,0,0-2.86-6.66,16.61,16.61,0,0,0-5.38-4.77,14,14,0,0,0-6.88-1.78,13.72,13.72,0,0,0-6.82,1.75,16.69,16.69,0,0,0-5.32,4.73A17.43,17.43,0,0,0,301.13,83.05Z"/><path class="cls-6" d="M394,73.71a15.82,15.82,0,0,0-3.59-1.78,12.94,12.94,0,0,0-4.28-.68,12.77,12.77,0,0,0-7.71,2.34,15.05,15.05,0,0,0-5,6.24,21.28,21.28,0,0,0-1.72,8.63v31.47H356.63V58.47h15v7.25A23.86,23.86,0,0,1,379,59.27a19.44,19.44,0,0,1,9.68-2.4c1.4,0,2.74.05,4,.13a15.77,15.77,0,0,1,3.72.67Z"/><path class="cls-6" d="M459,73.47l-30.85,31.46H459v15H406.53v-15l30.91-31.46H406.53v-15H459Z"/><path class="cls-6" d="M499.14,121.52a28.57,28.57,0,0,1-15.46-4.36,32.76,32.76,0,0,1-15.27-28,33.08,33.08,0,0,1,9-22.89,30.64,30.64,0,0,1,9.8-7,29.79,29.79,0,0,1,25.1.52,30.27,30.27,0,0,1,10.17,8.33,34.2,34.2,0,0,1,7,26.18H484.51a18.16,18.16,0,0,0,2.83,6.18,14.46,14.46,0,0,0,11.8,6,13.17,13.17,0,0,0,7.16-1.88,16.53,16.53,0,0,0,5.38-5.25L527,103a32.62,32.62,0,0,1-11.19,13.37A28.43,28.43,0,0,1,499.14,121.52ZM484,83.05h30.24a16.06,16.06,0,0,0-2.86-6.66A16.72,16.72,0,0,0,506,71.62a14,14,0,0,0-6.88-1.78,13.72,13.72,0,0,0-6.82,1.75A16.69,16.69,0,0,0,487,76.32,17.43,17.43,0,0,0,484,83.05Z"/><path class="cls-6" d="M566.74,121.52a28.55,28.55,0,0,1-15.46-4.36,32.16,32.16,0,0,1-11.12-11.74,34.05,34.05,0,0,1-1.75-28.85A33.25,33.25,0,0,1,545,66.25a30.79,30.79,0,0,1,9.81-7,29.79,29.79,0,0,1,25.1.52,30.37,30.37,0,0,1,10.17,8.33A34.31,34.31,0,0,1,597,94.3H552.11a18.16,18.16,0,0,0,2.83,6.18,14.46,14.46,0,0,0,11.8,6,13.17,13.17,0,0,0,7.16-1.88,16.53,16.53,0,0,0,5.38-5.25l15.3,3.56a32.62,32.62,0,0,1-11.19,13.37A28.43,28.43,0,0,1,566.74,121.52ZM551.62,83.05h30.24A16.06,16.06,0,0,0,579,76.39a16.72,16.72,0,0,0-5.38-4.77,14,14,0,0,0-6.88-1.78,13.72,13.72,0,0,0-6.82,1.75,16.58,16.58,0,0,0-5.32,4.73A17.43,17.43,0,0,0,551.62,83.05Z"/></g></g></g></svg>