<svg xmlns="http://www.w3.org/2000/svg" viewBox="0 0 103.43 92.21"><defs><style>.cls-1,.cls-2{fill:#1c7387;}.cls-2{font-size:22.58px;font-family:MyriadPro-Regular, Myriad Pro;}.cls-3{letter-spacing:-0.01em;}</style></defs><title>Asset 16dashboard active</title><g id="Layer_2" data-name="Layer 2"><g id="Layer_3_copy" data-name="Layer 3 copy"><path class="cls-1" d="M80.81,0H22.61a4,4,0,0,0-4,4V44.17a4,4,0,0,0,4,4h20v2.91a4.84,4.84,0,0,1-4.84,4.83H33.33a1.53,1.53,0,1,0,0,3.05H70.1a1.53,1.53,0,0,0,0-3.05H65.7a4.84,4.84,0,0,1-4.83-4.83V48.17H80.81a4,4,0,0,0,4-4V4A4,4,0,0,0,80.81,0ZM43.94,55.91a7.79,7.79,0,0,0,1.67-4.83V48.17H57.82v2.91a7.84,7.84,0,0,0,1.66,4.83ZM81.75,44.17a.94.94,0,0,1-.94.95H22.61a.94.94,0,0,1-.94-.95v-8H81.75Zm0-11.07H21.67V4a.94.94,0,0,1,.94-1h58.2a.94.94,0,0,1,.94,1V33.1Z"/><path class="cls-1" d="M54.33,10.51a1.54,1.54,0,0,0-2.16,0L41.39,21.29a1.52,1.52,0,0,0,0,2.16,1.51,1.51,0,0,0,1.08.45,1.48,1.48,0,0,0,1.07-.45L54.33,12.67A1.54,1.54,0,0,0,54.33,10.51Z"/><path class="cls-1" d="M60.72,16.76a1.52,1.52,0,0,0-2.16,0l-4.29,4.3a1.51,1.51,0,0,0,0,2.15,1.48,1.48,0,0,0,1.07.45,1.52,1.52,0,0,0,1.08-.45l4.3-4.29A1.54,1.54,0,0,0,60.72,16.76Z"/><text class="cls-2" transform="translate(0 86.57)">Dashboa<tspan class="cls-3" x="83.53" y="0">r</tspan><tspan x="90.69" y="0">d</tspan></text></g></g></svg>