<svg xmlns="http://www.w3.org/2000/svg" id="prefix__upgrade" width="13.475" height="14" viewBox="0 0 13.475 14">
    <defs>
        <style>
            .prefix__cls-1{fill:#fff}
        </style>
    </defs>
    <path id="prefix__Path_33" d="M6.5 12.988a6.52 6.52 0 0 0 1.644-.21L8.5 9.216a.25.25 0 0 1 .249-.225h1a1.249 1.249 0 0 1 2.5 0h.25a6.409 6.409 0 0 0 .5-2.5 6.5 6.5 0 1 0-6.5 6.494zm2.8-7.443l-.707.7a.25.25 0 0 1-.353 0l-.989-.986v4.981a.25.25 0 0 1-.25.25H6a.25.25 0 0 1-.25-.25V5.263l-.988.986a.25.25 0 0 1-.353 0l-.707-.7a.25.25 0 0 1 0-.354l2.621-2.62a.25.25 0 0 1 .353 0L9.3 5.191a.25.25 0 0 1 0 .354zM6.5 1A5.5 5.5 0 0 1 12 6.495a.25.25 0 0 1-.5 0 5 5 0 1 0-5 5 .25.25 0 1 1 0 .5A5.495 5.495 0 1 1 6.5 1zm0 0" class="prefix__cls-1" data-name="Path 33"/>
    <path id="prefix__Path_34" d="M135.414 101.552l.358.349 1.254-1.221a.258.258 0 0 1 .275-.053.247.247 0 0 1 .157.227v5.268h.506v-5.268a.247.247 0 0 1 .156-.228.257.257 0 0 1 .276.053l1.254 1.221.358-.348-2.3-2.241zm0 0" class="prefix__cls-1" data-name="Path 34" transform="translate(-131.208 -96.171)"/>
    <path id="prefix__Path_35" d="M328 264.759h1.518a.759.759 0 0 0-1.518 0zm0 0" class="prefix__cls-1" data-name="Path 35" transform="translate(-317.789 -255.756)"/>
    <path id="prefix__Path_36" d="M277.355 304h-.784v.506a.253.253 0 1 1-.506 0V304h-1.518v.506a.253.253 0 1 1-.506 0V304h-.783l-.457 4.555h5.01zm0 0" class="prefix__cls-1" data-name="Path 36" transform="translate(-264.336 -294.555)"/>
</svg>
