<svg xmlns="http://www.w3.org/2000/svg" width="106.127" height="73.999" viewBox="0 0 106.127 73.999">
    <defs>
        <linearGradient id="prefix__linear-gradient" x1=".5" x2=".5" y1="1" gradientUnits="objectBoundingBox">
            <stop offset="0" stop-color="gray" stop-opacity=".251"/>
            <stop offset=".54" stop-color="gray" stop-opacity=".122"/>
            <stop offset="1" stop-color="gray" stop-opacity=".102"/>
        </linearGradient>
        <style>
            .prefix__cls-2,.prefix__cls-8{fill:#fccc6f}.prefix__cls-3,.prefix__cls-7{fill:#444053}.prefix__cls-4{fill:#3f3d56}.prefix__cls-5,.prefix__cls-7,.prefix__cls-8{opacity:.1}.prefix__cls-10{fill:#a1616a}.prefix__cls-14{fill:#3acc6c}
        </style>
    </defs>
    <g id="prefix__Group_130" data-name="Group 130" transform="translate(0 .005)">
        <path id="prefix__Path_559" fill="#f0f0f0" d="M97.809 68.332C91.008 68.1 84.53 65.9 78.344 63.5s-12.313-5.064-18.952-6.337c-4.269-.819-9.153-.935-12.593 1.354-3.311 2.2-4.38 6.006-4.956 9.535-.433 2.655-.687 5.449.5 7.935.823 1.725 2.285 3.175 3.292 4.828 3.517 5.752 1.035 12.843-2.78 18.459-1.787 2.634-3.862 5.147-5.241 7.951s-2.015 6.017-.8 8.882c1.2 2.835 4.044 4.964 7.136 6.463 6.268 3.037 13.66 3.908 20.867 4.4 15.956 1.091 32 .619 48 .146a140.855 140.855 0 0 0 17.691-1.269c3.235-.508 6.574-1.317 8.922-3.263a7.472 7.472 0 0 0 1.722-9.761c-3.35-5.2-12.614-6.49-14.955-12.075-1.29-3.072.035-6.495 1.908-9.344 4.018-6.114 10.754-11.475 11.108-18.462.245-4.8-2.994-9.605-8-11.876-5.248-2.38-12.525-2.081-16.4 1.86-3.992 4.054-10.998 5.614-17.004 5.406z" data-name="Path 559" opacity="0.2" transform="translate(-36.136 -56.63)"/>
        <path id="prefix__Path_560" d="M923.876 737.184a2.9 2.9 0 0 0-1.184-.126.381.381 0 0 0 .07.758 3.5 3.5 0 0 0 .721-.133z" class="prefix__cls-2" data-name="Path 560" transform="translate(-838.977 -673.051)"/>
        <path id="prefix__Path_561" d="M935.45 738.61a2.9 2.9 0 0 1 .29 1.156.381.381 0 0 1-.761.036 3.541 3.541 0 0 1 .032-.732z" class="prefix__cls-2" data-name="Path 561" transform="translate(-850.403 -674.47)"/>
        <path id="prefix__Path_562" d="M930.833 716.724s-.238-.747-1.693-.457a.6.6 0 0 0 .019 1.175h.028a1.48 1.48 0 0 0 1.646-.718z" class="prefix__cls-2" data-name="Path 562" transform="translate(-844.68 -654.168)"/>
        <path id="prefix__Path_563" d="M948.792 721.3s.782.061.831 1.542a.6.6 0 0 1-1.148.25.08.08 0 0 0-.01-.027 1.484 1.484 0 0 1 .327-1.765z" class="prefix__cls-2" data-name="Path 563" transform="translate(-862.487 -658.788)"/>
        <path id="prefix__Path_564" d="M944.262 689.3a1.555 1.555 0 0 0-1.05-1.172.816.816 0 0 0-.543 1.537 3.074 3.074 0 0 0 1.245.181z" class="prefix__cls-2" data-name="Path 564" transform="translate(-856.914 -628.699)"/>
        <path id="prefix__Path_565" d="M953.821 663.816a2.044 2.044 0 0 0-1.43-1.129.871.871 0 0 0-.344 1.705 3.608 3.608 0 0 0 1.473.012z" class="prefix__cls-2" data-name="Path 565" transform="translate(-865.271 -605.673)"/>
        <path id="prefix__Path_566" d="M961.962 638.987a2.335 2.335 0 0 0-1.5-1.035.756.756 0 0 0-.334 1.472 3.511 3.511 0 0 0 1.763-.024z" class="prefix__cls-2" data-name="Path 566" transform="translate(-872.687 -583.266)"/>
        <path id="prefix__Path_567" d="M970.143 613.547a2.428 2.428 0 0 0-1.317-1.047.761.761 0 0 0-.47 1.448 2.678 2.678 0 0 0 1.706-.007z" class="prefix__cls-2" data-name="Path 567" transform="translate(-880.184 -560.187)"/>
        <path id="prefix__Path_568" d="M972.886 586.961a3.266 3.266 0 0 0-1.143-1.349.787.787 0 0 0-.846 1.325 2.383 2.383 0 0 0 1.911.435z" class="prefix__cls-2" data-name="Path 568" transform="translate(-882.64 -535.752)"/>
        <path id="prefix__Path_569" d="M973.765 560.348a3.2 3.2 0 0 0-1.211-1.317.81.81 0 0 0-.826 1.39 2.08 2.08 0 0 0 1.96.317z" class="prefix__cls-2" data-name="Path 569" transform="translate(-883.376 -511.69)"/>
        <path id="prefix__Path_570" d="M975.116 535.461a5.77 5.77 0 0 0-1.129-1.284.629.629 0 0 0-.821.951 2.82 2.82 0 0 0 1.924.885z" class="prefix__cls-2" data-name="Path 570" transform="translate(-884.816 -489.13)"/>
        <path id="prefix__Path_571" d="M972.463 508.172a8.457 8.457 0 0 0-1.275-1.648.529.529 0 0 0-.752.742 4.894 4.894 0 0 0 2.087 1.405z" class="prefix__cls-2" data-name="Path 571" transform="translate(-882.399 -464.074)"/>
        <path id="prefix__Path_572" d="M969.957 483.93a7.539 7.539 0 0 0-1.019-1.261.531.531 0 0 0-.76.742 3.888 3.888 0 0 0 1.907 1.2z" class="prefix__cls-2" data-name="Path 572" transform="translate(-880.349 -442.459)"/>
        <path id="prefix__Path_573" d="M967.514 459.007a12.027 12.027 0 0 0-.979-1.163.44.44 0 0 0-.651.592 2.7 2.7 0 0 0 1.637 1.019z" class="prefix__cls-2" data-name="Path 573" transform="translate(-878.305 -419.985)"/>
        <path id="prefix__Path_574" d="M964.093 430.938a12.256 12.256 0 0 0-.941-1.547.385.385 0 0 0-.63.442 3.428 3.428 0 0 0 1.529 1.338z" class="prefix__cls-2" data-name="Path 574" transform="translate(-875.298 -394.189)"/>
        <path id="prefix__Path_575" d="M963.706 405.418s-.232-.394-.564-.852a.4.4 0 0 0-.67.451 2.025 2.025 0 0 0 1.187.99z" class="prefix__cls-2" data-name="Path 575" transform="translate(-875.252 -371.69)"/>
        <path id="prefix__Path_576" d="M965.79 377.418l-.294-1.472a.31.31 0 0 0-.611.094 3.322 3.322 0 0 0 .966 2.1z" class="prefix__cls-2" data-name="Path 576" transform="translate(-877.499 -345.691)"/>
        <path id="prefix__Path_577" d="M971.056 347.819a.289.289 0 0 0-.551.158 7.451 7.451 0 0 0 .3 1.2z" class="prefix__cls-2" data-name="Path 577" transform="translate(-882.59 -320.275)"/>
        <path id="prefix__Path_578" d="M962.3 699.935a1.555 1.555 0 0 1 1.539.331.817.817 0 0 1-1.068 1.233 3.091 3.091 0 0 1-.774-.992z" class="prefix__cls-2" data-name="Path 578" transform="translate(-874.888 -639.362)"/>
        <path id="prefix__Path_579" d="M975.137 673.532a2.042 2.042 0 0 1 1.755.478.871.871 0 0 1-1.165 1.292 3.6 3.6 0 0 1-.887-1.177z" class="prefix__cls-2" data-name="Path 579" transform="translate(-886.521 -615.478)"/>
        <path id="prefix__Path_580" d="M984.929 646.656a2.336 2.336 0 0 1 1.787-.4.756.756 0 0 1-.241 1.49 3.518 3.518 0 0 1-1.625-.682z" class="prefix__cls-2" data-name="Path 580" transform="translate(-895.589 -590.77)"/>
        <path id="prefix__Path_581" d="M992.036 619.463a2.425 2.425 0 0 1 1.61-.481.761.761 0 0 1-.106 1.518 2.672 2.672 0 0 1-1.58-.644z" class="prefix__cls-2" data-name="Path 581" transform="translate(-902.031 -566.09)"/>
        <path id="prefix__Path_582" d="M995.2 590.268a3.275 3.275 0 0 1 1.355-1.134.788.788 0 0 1 .62 1.446 2.384 2.384 0 0 1-1.967.108z" class="prefix__cls-2" data-name="Path 582" transform="translate(-904.966 -538.998)"/>
        <path id="prefix__Path_583" d="M995.55 562.028a3.187 3.187 0 0 1 1.371-1.144.811.811 0 0 1 .638 1.486 2.08 2.08 0 0 1-1.985.058z" class="prefix__cls-2" data-name="Path 583" transform="translate(-905.283 -513.409)"/>
        <path id="prefix__Path_584" d="M993.67 532.259a5.769 5.769 0 0 1 .828-1.5.628.628 0 0 1 1.005.752 2.805 2.805 0 0 1-1.693 1.276z" class="prefix__cls-2" data-name="Path 584" transform="translate(-903.58 -485.953)"/>
        <path id="prefix__Path_585" d="M992.9 504.218a8.42 8.42 0 0 1 .764-1.943.527.527 0 0 1 .925.5 4.875 4.875 0 0 1-1.612 1.933z" class="prefix__cls-2" data-name="Path 585" transform="translate(-902.882 -460.124)"/>
        <path id="prefix__Path_586" d="M987.1 479.744a7.542 7.542 0 0 1 .777-1.483.53.53 0 0 1 .892.572 3.907 3.907 0 0 1-1.658 1.6z" class="prefix__cls-2" data-name="Path 586" transform="translate(-897.628 -438.395)"/>
        <path id="prefix__Path_587" d="M982.48 454.481a12.085 12.085 0 0 1 .407-1.464.44.44 0 0 1 .838.267 2.7 2.7 0 0 1-1.065 1.606z" class="prefix__cls-2" data-name="Path 587" transform="translate(-893.442 -415.473)"/>
        <path id="prefix__Path_588" d="M979.27 428.075a12.217 12.217 0 0 1 .564-1.722.385.385 0 0 1 .715.287 3.427 3.427 0 0 1-1.183 1.652z" class="prefix__cls-2" data-name="Path 588" transform="translate(-890.534 -391.37)"/>
        <path id="prefix__Path_589" d="M974.46 405.132s.088-.449.249-.991a.4.4 0 0 1 .782.2 2.026 2.026 0 0 1-.79 1.329z" class="prefix__cls-2" data-name="Path 589" transform="translate(-886.177 -371.196)"/>
        <path id="prefix__Path_590" d="M973.977 377.361l.512-1.411a.31.31 0 0 1 .59.188 3.3 3.3 0 0 1-1.268 1.928z" class="prefix__cls-2" data-name="Path 590" transform="translate(-885.588 -345.733)"/>
        <path id="prefix__Path_591" d="M974.179 348.91s.08-.064.2-.165a.254.254 0 0 1 .34.376 4.8 4.8 0 0 1-1.391.882z" class="prefix__cls-2" data-name="Path 591" transform="translate(-885.153 -321.219)"/>
        <path id="prefix__Path_592" d="M980.994 322.236a18.53 18.53 0 0 1 1.021-1.817.188.188 0 0 0-.3-.215 5.456 5.456 0 0 0-.82 1.9z" class="prefix__cls-2" data-name="Path 592" transform="translate(-892.002 -295.362)"/>
        <path id="prefix__Path_593" d="M973.383 347.476l.109-.011c-.47-4.384-.272-7.087.55-7.611l-.059-.094c-.871.558-1.078 3.225-.6 7.716z" class="prefix__cls-3" data-name="Path 593" transform="translate(-884.973 -313.134)"/>
        <path id="prefix__Path_594" d="M977.1 429.067l.163-.024c-.061-.405-.132-.817-.211-1.223-.685-3.558-1.217-6.847-1.483-9.345l-.119-.094c.267 2.5.753 5.906 1.442 9.469.077.401.148.812.208 1.217z" class="prefix__cls-3" data-name="Path 594" transform="translate(-887.073 -384.36)"/>
        <path id="prefix__Path_595" d="M910.723 550.788a21.343 21.343 0 0 0 4.73-5.613 23.7 23.7 0 0 0 2.784-6.94 27.7 27.7 0 0 0 .214-9.954l-.147.118a25.125 25.125 0 0 1-3.033 16.656 21.084 21.084 0 0 1-4.68 5.559z" class="prefix__cls-3" data-name="Path 595" transform="translate(-828.314 -483.923)"/>
        <ellipse id="prefix__Ellipse_447" cx="6.259" cy="1.204" class="prefix__cls-2" data-name="Ellipse 447" rx="6.259" ry="1.204" transform="translate(11.989 64.44)"/>
        <ellipse id="prefix__Ellipse_448" cx=".729" cy=".954" class="prefix__cls-4" data-name="Ellipse 448" rx=".729" ry=".954" transform="translate(17.415 64.179)"/>
        <ellipse id="prefix__Ellipse_449" cx=".729" cy=".954" class="prefix__cls-4" data-name="Ellipse 449" rx=".729" ry=".954" transform="translate(17.415 63.012)"/>
        <ellipse id="prefix__Ellipse_450" cx=".729" cy=".954" class="prefix__cls-4" data-name="Ellipse 450" rx=".729" ry=".954" transform="translate(17.415 61.847)"/>
        <ellipse id="prefix__Ellipse_451" cx=".729" cy=".954" class="prefix__cls-4" data-name="Ellipse 451" rx=".729" ry=".954" transform="translate(17.415 60.681)"/>
        <ellipse id="prefix__Ellipse_452" cx=".729" cy=".954" class="prefix__cls-4" data-name="Ellipse 452" rx=".729" ry=".954" transform="translate(17.415 59.514)"/>
        <ellipse id="prefix__Ellipse_453" cx=".729" cy=".954" class="prefix__cls-4" data-name="Ellipse 453" rx=".729" ry=".954" transform="translate(17.415 58.349)"/>
        <ellipse id="prefix__Ellipse_454" cx=".729" cy=".954" class="prefix__cls-4" data-name="Ellipse 454" rx=".729" ry=".954" transform="translate(17.415 57.183)"/>
        <path id="prefix__Path_596" d="M197.636 535.493a3.431 3.431 0 0 0 .272-.4l-1.915-.314 2.069.015a3.493 3.493 0 0 0 .067-2.765l-2.778 1.441 2.562-1.881a3.491 3.491 0 1 0-5.766 3.906 3.528 3.528 0 0 0-.4.637l2.486 1.291-2.649-.89a44.136 44.136 0 0 1 .939 8 7.07 7.07 0 0 0 5.113-9.04z" class="prefix__cls-2" data-name="Path 596" transform="translate(-176.765 -485.336)"/>
        <path id="prefix__Path_597" d="M191.45 612.394a13.867 13.867 0 0 1 1.121 6.881 3.491 3.491 0 0 0 5.113-4.724c.469-.593-6.234-2.551-6.234-2.157z" class="prefix__cls-5" data-name="Path 597" transform="translate(-176.813 -560.078)"/>
        <path id="prefix__Path_598" fill="#fff" d="M267.81 317.87v41.546a1.45 1.45 0 0 0 1.45 1.45h59.62a1.45 1.45 0 0 0 1.45-1.45V317.87z" data-name="Path 598" transform="translate(-245.992 -293.303)"/>
        <rect id="prefix__Rectangle_378" width="14.946" height="8.773" class="prefix__cls-5" data-name="Rectangle 378" rx="4.386" transform="translate(26.766 28.286)"/>
        <rect id="prefix__Rectangle_379" width="14.946" height="8.773" class="prefix__cls-5" data-name="Rectangle 379" rx="4.386" transform="translate(45.606 28.286)"/>
        <rect id="prefix__Rectangle_380" width="14.525" height="8.525" class="prefix__cls-2" data-name="Rectangle 380" rx="4.263" transform="translate(26.975 28.409)"/>
        <rect id="prefix__Rectangle_381" width="14.525" height="8.525" class="prefix__cls-7" data-name="Rectangle 381" rx="4.263" transform="rotate(180 39.591 18.467)"/>
        <rect id="prefix__Rectangle_382" width="14.525" height="8.525" class="prefix__cls-2" data-name="Rectangle 382" rx="4.263" transform="rotate(180 30.17 18.467)"/>
        <rect id="prefix__Rectangle_383" width="14.525" height="8.525" class="prefix__cls-7" data-name="Rectangle 383" rx="4.263" transform="translate(26.975 40.724)"/>
        <rect id="prefix__Rectangle_384" width="14.525" height="8.525" class="prefix__cls-7" data-name="Rectangle 384" rx="4.263" transform="rotate(180 39.591 24.625)"/>
        <rect id="prefix__Rectangle_385" width="14.525" height="8.525" class="prefix__cls-7" data-name="Rectangle 385" rx="4.263" transform="rotate(180 30.17 24.625)"/>
        <rect id="prefix__Rectangle_386" width="14.525" height="8.525" class="prefix__cls-7" data-name="Rectangle 386" rx="4.263" transform="translate(26.975 53.039)"/>
        <rect id="prefix__Rectangle_387" width="14.525" height="8.525" class="prefix__cls-7" data-name="Rectangle 387" rx="4.263" transform="rotate(180 39.591 30.783)"/>
        <rect id="prefix__Rectangle_388" width="14.525" height="8.525" class="prefix__cls-7" data-name="Rectangle 388" rx="4.263" transform="rotate(180 30.17 30.783)"/>
        <path id="prefix__Path_599" d="M267.81 225.881v7.548h62.521v-7.548a1.45 1.45 0 0 0-1.45-1.451H269.26a1.45 1.45 0 0 0-1.45 1.451zm15.472 2.233a1.158 1.158 0 1 1 1.158-1.158 1.158 1.158 0 0 1-1.158 1.158zm31.576 0a1.158 1.158 0 1 1 .818-.338 1.158 1.158 0 0 1-.818.338z" class="prefix__cls-2" data-name="Path 599" transform="translate(-245.992 -208.652)"/>
        <path id="prefix__Path_600" d="M419.119 236.74a1.369 1.369 0 1 0 1.368 1.368 1.369 1.369 0 0 0-1.368-1.368zm0 2.526a1.158 1.158 0 1 1 1.158-1.158 1.158 1.158 0 0 1-1.158 1.158z" class="prefix__cls-5" data-name="Path 600" transform="translate(-381.829 -219.804)"/>
        <path id="prefix__Path_601" d="M754.819 236.74a1.369 1.369 0 1 0 1.369 1.369 1.369 1.369 0 0 0-1.369-1.369zm0 2.526a1.158 1.158 0 1 1 1.158-1.158 1.158 1.158 0 0 1-1.158 1.158z" class="prefix__cls-5" data-name="Path 601" transform="translate(-685.954 -219.804)"/>
        <circle id="prefix__Ellipse_455" cx="1.436" cy="1.436" r="1.436" class="prefix__cls-8" data-name="Ellipse 455" transform="translate(95.734 38.057)"/>
        <circle id="prefix__Ellipse_456" cx="2.408" cy="2.408" r="2.408" class="prefix__cls-8" data-name="Ellipse 456" transform="translate(99.901 30.68)"/>
        <circle id="prefix__Ellipse_457" cx="2.408" cy="2.408" r="2.408" class="prefix__cls-8" data-name="Ellipse 457" transform="translate(96.713 42.364)"/>
        <circle id="prefix__Ellipse_458" cx="3.41" cy="3.41" r="3.41" class="prefix__cls-8" data-name="Ellipse 458" transform="translate(0 29.088)"/>
        <path id="prefix__Path_602" fill="url(#prefix__linear-gradient)" d="M799.241 436.344a3.011 3.011 0 0 0-.7-.392.144.144 0 0 0-.061-.016 10.737 10.737 0 0 1-1.439-1.24c.094-.075.181-.149.273-.221a3.1 3.1 0 0 1-1.182-1.441 14.217 14.217 0 0 0-3.132-3.907c-.031-.119-.213-.094-.309-.171a.248.248 0 0 1-.069-.24c.015-.087.055-.167.076-.251a1.693 1.693 0 0 0-.016-.611.749.749 0 0 1 .122-.584c.043-.05.1-.088.141-.139a.53.53 0 0 0 .094-.422 1.5 1.5 0 0 0-.094-.428q.691-1.881 1.382-3.769a8.89 8.89 0 0 0 .681-2.713 3.242 3.242 0 0 0-.623-2.109c.083-.02.166-.04.247-.064a4.267 4.267 0 0 1-.61-2.556q-.011-.672-.046-1.344c.156.069.314.13.476.182l.15.046a5.194 5.194 0 0 0 .746.16c.111.016.224.028.336.036q-.243-.608-.484-1.217a1.663 1.663 0 0 1-.15-.571v-.038a.328.328 0 0 1 0-.068.744.744 0 0 1 .037-.158.718.718 0 0 1 .029-.074 1.32 1.32 0 0 1 .12-.212c.034-.052.072-.1.109-.152a2.081 2.081 0 0 0 .338-.546 1.036 1.036 0 0 0 .052-.311 1.532 1.532 0 0 0-.028-.32c-.013-.07-.03-.14-.049-.208-.012-.042-.025-.085-.039-.126l-.011-.034-.032-.094-.011-.032c-.012-.034-.024-.067-.038-.1l-.008-.02c-.18-.462-.419-.9-.564-1.377a3.64 3.64 0 0 1-.094-.385c-.007-.033-.011-.067-.017-.1s-.008-.056-.012-.085l-.012-.1-.008-.094c0-.03 0-.06-.007-.094 0-.057-.006-.115-.007-.172v-.262c0-.043.007-.087.01-.129a.191.191 0 0 1 .007-.061q.009-.094.025-.188c.009-.055.02-.112.031-.168a2.253 2.253 0 0 0 .053-.47.474.474 0 0 0-.007-.094c-.007-.033-.008-.051-.012-.075a.2.2 0 0 1 0-.023.248.248 0 0 0-.012-.051.1.1 0 0 0-.008-.023c0-.008-.01-.033-.016-.049l-.008-.022c0-.008-.013-.034-.021-.05l-.007-.017c-.009-.021-.02-.04-.03-.06a1.384 1.384 0 0 0-.126-.2c-.309-.406-.824-.716-1.107-1.163a2.59 2.59 0 0 1-.317-.941l-.039-.225c-.013-.075-.024-.148-.038-.221-.009-.045-.017-.094-.026-.135l-.006-.029-.023-.108-.006-.025-.026-.113-.006-.02-.03-.119a.078.078 0 0 1 0-.014l-.036-.124v-.008l-.04-.128c-.014-.043-.029-.088-.045-.131l-.051-.132a3.479 3.479 0 0 0-.476-.846 2.246 2.246 0 0 0-1.787-.924 3.54 3.54 0 0 0-1.075.273l-.906.334.253-.117a2.165 2.165 0 0 0-.77.165.748.748 0 0 0-.447.612c0 .155.056.309.037.464-.033.255-.267.428-.388.654a.84.84 0 0 0-.094.442v.06a.077.077 0 0 0 0 .015v.03c-.376-.164-.753-.334-1.129-.516a3.99 3.99 0 0 1-1.638-1.244c-.124-.188-.22-.391-.343-.578a4.564 4.564 0 0 0-.47-.564l-1.154-1.249c-.088.166.025.363.115.529a2.269 2.269 0 0 1 .214.551.262.262 0 0 1-.006.193.376.376 0 0 1-.158.112.564.564 0 0 0-.238.646.715.715 0 0 0 .533.465.968.968 0 0 1 .238.058c.139.069.205.229.3.348a1.368 1.368 0 0 0 .746.372c.427.493.871.965 1.3 1.458a9.342 9.342 0 0 0 2.15 2.009c.087.053.177.1.267.147a.148.148 0 0 1 0 .045.51.51 0 0 0 .04.329.517.517 0 0 0 .369.18l.638.114a2.186 2.186 0 0 1-.031.246c-.008.05-.019.1-.028.149l-.011.064v.009a.187.187 0 0 1-.007.052c-.007.018 0 .012 0 .018v.125a1.2 1.2 0 0 0 .355.648l.089.108a1.505 1.505 0 0 0-.291.609 2.071 2.071 0 0 0-.041.424.737.737 0 0 0-.188.293 1.342 1.342 0 0 0-.049.475v.188a1.581 1.581 0 0 0 .109.658c.008.017.018.032.026.048a9.117 9.117 0 0 1-.545.752 1.633 1.633 0 0 0 .15 1.87c.129.149.294.292.309.489a1.823 1.823 0 0 1-.026.267 2 2 0 0 0 .135.62.641.641 0 0 1-.052.514.753.753 0 0 0-.129.493 3.293 3.293 0 0 1-.081.8c-.008.116 0 .233-.01.349a1.969 1.969 0 0 1-.069.327.134.134 0 0 1-.009.036c-.232.1-.463.209-.685.332a.6.6 0 0 0-.282.26.667.667 0 0 0-.015.357l.2 1.394-.035-.015.049.688a.927.927 0 0 0 .132.5 1.293 1.293 0 0 1 .142.182c.079.16-.015.346-.085.51s-.094.4.059.484a1.25 1.25 0 0 0 .257.137 5.367 5.367 0 0 0 .16 2.394l.4 1.8a4.37 4.37 0 0 1 .088.775v.12a4.343 4.343 0 0 0 .188 1.055 12.367 12.367 0 0 1 .074 2.315 6.864 6.864 0 0 0 .22 1.09 33.592 33.592 0 0 1 1.016 5.421 1.362 1.362 0 0 0 .651.454c-.019.228.007.488 0 .621a1.072 1.072 0 0 1-.051.324.777.777 0 0 1-.492.419c-.066.023-.133.04-.2.056l.075-.064a1.68 1.68 0 0 0-1.252.22.5.5 0 0 0-.247.292.47.47 0 0 0 .086.338 1.54 1.54 0 0 0 .87.618 4.564 4.564 0 0 0 1.072.15l.664.039a.183.183 0 0 0 .043.236.465.465 0 0 0 .244.088 3.1 3.1 0 0 0 .819.012.321.321 0 0 0 .188-.068.121.121 0 0 0 0-.18.2.2 0 0 0 .181-.132.533.533 0 0 0 .024-.238 2.555 2.555 0 0 0-.206-1.035.263.263 0 0 0-.291-.128 11.283 11.283 0 0 1-.188-1.669 4.077 4.077 0 0 0 .483-.218 3.735 3.735 0 0 1-.329-2.56 7.759 7.759 0 0 0 .123-.829 2.748 2.748 0 0 0-.36-1.642 5.875 5.875 0 0 1 1.467 1.328 16.647 16.647 0 0 0 1.843 2.577q.157-.153.318-.3.252.427.477.872a3.32 3.32 0 0 1 .277.688 3.18 3.18 0 0 1 .025 1.109q-.033.293-.08.584a1.586 1.586 0 0 1-.057.245.169.169 0 0 0-.018-.073c-.05-.087-.188-.048-.263.012a1.164 1.164 0 0 0-.324.376.405.405 0 0 0-.058.24.355.355 0 0 0 .188.235 1.962 1.962 0 0 0 1.455-.242c.188-.135.291-.358.478-.49a2.767 2.767 0 0 0 .289-.182c.174-.159.188-.427.315-.628.211-.347.682-.436.866-.8a1.026 1.026 0 0 0-.355-1.192z" data-name="Path 602" transform="translate(-712.177 -366.712)"/>
        <path id="prefix__Path_603" d="M860.52 804.544a1.048 1.048 0 0 1-.052.32.773.773 0 0 1-.491.413c-.209.073-.431.094-.643.157a.564.564 0 0 0-.251.13.456.456 0 0 0 .145.667 1.249 1.249 0 0 0 .762.118 10.038 10.038 0 0 0 1.648-.234c.2-.046.424-.136.455-.335a.549.549 0 0 0-.015-.188 11.125 11.125 0 0 1-.212-2.044 4.249 4.249 0 0 0-1.193-.009c-.227.149-.141.774-.153 1.005z" class="prefix__cls-10" data-name="Path 603" transform="translate(-781.565 -733.257)"/>
        <path id="prefix__Path_604" d="M924.989 779.88q.271.449.509.915a3.244 3.244 0 0 1 .276.678 3.116 3.116 0 0 1 .025 1.094q-.033.289-.081.577a.728.728 0 0 1-.242.51.557.557 0 0 0 .48.042 1.383 1.383 0 0 0 .422-.259 3.728 3.728 0 0 0 1.441-2.676.425.425 0 0 0-.044-.237.469.469 0 0 0-.141-.126 10.843 10.843 0 0 1-1.668-1.4.2.2 0 0 0-.122-.078.212.212 0 0 0-.109.031c-.309.155-.827.376-.956.729a.492.492 0 0 1 .21.2z" class="prefix__cls-10" data-name="Path 604" transform="translate(-841.169 -710.988)"/>
        <path id="prefix__Path_605" d="M855.6 822.322a8.376 8.376 0 0 1-2.144.481.293.293 0 0 1-.257-.047.2.2 0 0 1-.017-.22.574.574 0 0 1 .157-.173l.486-.407a1.693 1.693 0 0 0-1.236.213.492.492 0 0 0-.246.282.459.459 0 0 0 .087.334 1.537 1.537 0 0 0 .869.609 4.647 4.647 0 0 0 1.071.148l.658.038a.178.178 0 0 0 .044.233.47.47 0 0 0 .245.089 3.137 3.137 0 0 0 .818.011.313.313 0 0 0 .188-.067.118.118 0 0 0 0-.177.2.2 0 0 0 .181-.131.544.544 0 0 0 .024-.234 2.464 2.464 0 0 0-.206-1.019c-.161-.266-.496-.057-.722.037z" class="prefix__cls-4" data-name="Path 605" transform="translate(-775.541 -749.942)"/>
        <path id="prefix__Path_606" d="M930.286 793.732a3.025 3.025 0 0 0-.7-.387.083.083 0 0 0-.126.032 7.162 7.162 0 0 0-1.028 1.982 3.447 3.447 0 0 1-.514 1.163c-.036.043-.094.087-.143.062-.071-.036-.027-.15-.067-.218-.049-.087-.182-.047-.262.012a1.127 1.127 0 0 0-.324.376.376.376 0 0 0-.058.236.348.348 0 0 0 .183.231 1.357 1.357 0 0 0 1.161-.094 1.325 1.325 0 0 0 .292-.146c.188-.133.291-.354.478-.482a2.734 2.734 0 0 0 .289-.181c.173-.157.188-.421.314-.621.211-.341.682-.43.866-.793a1.022 1.022 0 0 0-.361-1.172z" class="prefix__cls-4" data-name="Path 606" transform="translate(-843.239 -724.041)"/>
        <path id="prefix__Path_607" d="M845.853 593.238a2.934 2.934 0 0 1 1.017 2.465 8.7 8.7 0 0 1-.679 2.676l-1.381 3.718a1.533 1.533 0 0 1 .094.423.52.52 0 0 1-.094.416c-.043.05-.094.088-.141.137a.736.736 0 0 0-.122.577 1.671 1.671 0 0 1 .016.6c-.022.084-.061.163-.076.247a.246.246 0 0 0 .069.237c.094.075.282.051.309.169a14.06 14.06 0 0 1 3.135 3.86 3.034 3.034 0 0 0 1.181 1.421 20.621 20.621 0 0 0-1.592 1.4 16.669 16.669 0 0 1-1.84-2.54 5.832 5.832 0 0 0-1.465-1.31 2.681 2.681 0 0 1 .36 1.62 7.523 7.523 0 0 1-.123.817 3.619 3.619 0 0 0 .329 2.526 2.765 2.765 0 0 1-1.609.37 1.37 1.37 0 0 1-.877-.5 33.077 33.077 0 0 0-1.015-5.349 6.57 6.57 0 0 1-.219-1.083 11.958 11.958 0 0 0-.075-2.284 4.26 4.26 0 0 1-.188-1.04v-.112a4.266 4.266 0 0 0-.088-.764l-.4-1.78a5.218 5.218 0 0 1-.161-2.363 1.251 1.251 0 0 1-.256-.134c-.153-.087-.129-.316-.059-.478s.163-.345.085-.5a1.24 1.24 0 0 0-.142-.18.9.9 0 0 1-.132-.49l-.049-.679a1.329 1.329 0 0 1 .67.586 2.24 2.24 0 0 1 .086-2.018.92.92 0 0 1 .863-.684c1.502-.259 3.344-.897 4.569.023z" class="prefix__cls-4" data-name="Path 607" transform="translate(-764.055 -542.336)"/>
        <path id="prefix__Path_608" d="M888.712 638.93s-.741.495-.741.865-.188 3.706-.188 3.706v2.351a6.331 6.331 0 0 1 0 1.544 9.92 9.92 0 0 0 0 1.915c0 .185.188-1.915.188-1.915v-2.226l.188-5.066z" class="prefix__cls-5" data-name="Path 608" transform="translate(-807.602 -584.166)"/>
        <path id="prefix__Path_609" d="M789.191 409.79l-.432-.168c-.882-.354-1.765-.708-2.619-1.123a4 4 0 0 1-1.637-1.227c-.124-.188-.22-.386-.343-.571a4.556 4.556 0 0 0-.47-.558l-1.153-1.232c-.088.165.024.358.115.521a2.258 2.258 0 0 1 .214.545.252.252 0 0 1-.007.188.365.365 0 0 1-.157.111.552.552 0 0 0-.238.637.71.71 0 0 0 .532.459 1.012 1.012 0 0 1 .238.057c.139.069.205.226.3.343a1.369 1.369 0 0 0 .745.367c.427.486.87.952 1.3 1.438a9.3 9.3 0 0 0 2.148 1.983 3.146 3.146 0 0 0 .97.389 15.734 15.734 0 0 1 .494-2.159z" class="prefix__cls-10" data-name="Path 609" transform="translate(-712.215 -372.157)"/>
        <path id="prefix__Path_610" d="M789.191 409.79l-.432-.168c-.882-.354-1.765-.708-2.619-1.123a4 4 0 0 1-1.637-1.227c-.124-.188-.22-.386-.343-.571a4.556 4.556 0 0 0-.47-.558l-1.153-1.232c-.088.165.024.358.115.521a2.258 2.258 0 0 1 .214.545.252.252 0 0 1-.007.188.365.365 0 0 1-.157.111.552.552 0 0 0-.238.637.71.71 0 0 0 .532.459 1.012 1.012 0 0 1 .238.057c.139.069.205.226.3.343a1.369 1.369 0 0 0 .745.367c.427.486.87.952 1.3 1.438a9.3 9.3 0 0 0 2.148 1.983 3.146 3.146 0 0 0 .97.389 15.734 15.734 0 0 1 .494-2.159z" data-name="Path 610" opacity="0.15" transform="translate(-712.215 -372.157)"/>
        <path id="prefix__Path_611" d="M841.792 458.05a.518.518 0 0 1-.369-.177.5.5 0 0 1-.04-.324 9.1 9.1 0 0 1 .47-2.079 2.247 2.247 0 0 0 1.014.819 7.521 7.521 0 0 0 1.089.5c-.094-.03-.325 1.417-.454 1.5-.164.115-.559-.04-.74-.072z" class="prefix__cls-2" data-name="Path 611" transform="translate(-765.606 -417.961)"/>
        <circle id="prefix__Ellipse_459" cx="1.977" cy="1.977" r="1.977" class="prefix__cls-10" data-name="Ellipse 459" transform="translate(75.211 35.708)"/>
        <path id="prefix__Path_612" fill="#fbbebe" d="M852.22 461.568s1.3 1.112.741 1.853-.865 1.236-.124 1.3 3.212-1.236 3.212-1.236-2.286-1.853-1.915-2.965-1.914 1.048-1.914 1.048z" data-name="Path 612" transform="translate(-775.434 -422.247)"/>
        <path id="prefix__Path_613" d="M845.682 479.846a1.534 1.534 0 0 0-1.135 1.142c-.146.666.164 1.411-.128 2.024a8.049 8.049 0 0 1-.564.783 1.6 1.6 0 0 0 .145 1.845c.129.147.294.289.309.483a1.764 1.764 0 0 1-.026.263 1.952 1.952 0 0 0 .135.612.623.623 0 0 1-.052.506.733.733 0 0 0-.128.486 3.258 3.258 0 0 1-.082.792c-.009.115 0 .229-.01.344a2.006 2.006 0 0 1-.068.323l-.166.61a6.785 6.785 0 0 0 2.822.5 13.831 13.831 0 0 0 2.576-.376c.259-.055.517-.109.772-.18a4.172 4.172 0 0 1-.61-2.521 37.636 37.636 0 0 0-.33-4.411 5.674 5.674 0 0 0 .483-1.587 2.682 2.682 0 0 0 .06-.671 3.568 3.568 0 0 0-.454-1.343 1.739 1.739 0 0 0-.835-.968.664.664 0 0 0-.642.071c-.326.246-.229.672-.313 1.035a1.389 1.389 0 0 1-1.005.941 3.268 3.268 0 0 1-1.057.1.188.188 0 0 1-.134-.309c.155-.164.308-.334.437-.494z" class="prefix__cls-2" data-name="Path 613" transform="translate(-767.652 -438.785)"/>
        <path id="prefix__Path_614" d="M841.884 574.49a12.867 12.867 0 0 1-2.317 1.625c-.5.248-1.022.432-1.5.7a.6.6 0 0 0-.282.256.631.631 0 0 0-.015.353l.214 1.479c.059.4.444.658.752.914a.541.541 0 0 1 .02-.358 1.193 1.193 0 0 1 .072-.108 1.015 1.015 0 0 0 .1-.7 3.857 3.857 0 0 1-.082-.713.233.233 0 0 1 .1-.207c1.051-.505 2.182-.893 3.244-1.372a3.438 3.438 0 0 0 .787-.447 1.211 1.211 0 0 0 .457-.759.149.149 0 0 0-.019-.116.157.157 0 0 0-.08-.047c-.475-.17-.977-.329-1.451-.5z" class="prefix__cls-10" data-name="Path 614" transform="translate(-762.322 -525.787)"/>
        <path id="prefix__Path_615" d="M851.251 508.482a1.063 1.063 0 0 0-.868.6 1.329 1.329 0 0 0-.049.47 1.53 1.53 0 0 0 .11.652 1.842 1.842 0 0 0 .22.32c.869 1.114 1.306 2.512 2.152 3.644.075.1.213.229.17.347a.825.825 0 0 0-.04.094.188.188 0 0 0 .062.165.4.4 0 0 1 .1.15c.016.059-.024.136-.085.132a1.258 1.258 0 0 0 .708.646 2.948 2.948 0 0 0 1.581.388 3.608 3.608 0 0 0 .188-1.294 3.359 3.359 0 0 0-.315-.918l-.368-.8a11.966 11.966 0 0 0-1.066-1.99 3.008 3.008 0 0 1-.394-.635c-.112-.291-.419-.495-.606-.744a4.611 4.611 0 0 0-.935-1.024.845.845 0 0 0-.565-.203z" class="prefix__cls-5" data-name="Path 615" transform="translate(-773.722 -465.982)"/>
        <path id="prefix__Path_616" d="M851.252 506.512a1.064 1.064 0 0 0-.868.6 1.335 1.335 0 0 0-.049.47 1.528 1.528 0 0 0 .11.652 1.835 1.835 0 0 0 .22.32c.869 1.114 1.305 2.512 2.152 3.644.075.1.213.229.17.347a.824.824 0 0 0-.04.094.188.188 0 0 0 .062.165.4.4 0 0 1 .1.15c.016.059-.024.136-.085.132a1.258 1.258 0 0 0 .708.646 2.949 2.949 0 0 0 1.581.388 3.609 3.609 0 0 0 .188-1.294 3.36 3.36 0 0 0-.315-.918l-.368-.8a11.96 11.96 0 0 0-1.066-1.99 2.993 2.993 0 0 1-.394-.636c-.112-.29-.419-.494-.606-.743a4.611 4.611 0 0 0-.935-1.024.848.848 0 0 0-.565-.203z" class="prefix__cls-2" data-name="Path 616" transform="translate(-773.722 -464.198)"/>
        <path id="prefix__Path_617" d="M835.293 418.1a2.177 2.177 0 0 0-.769.162.74.74 0 0 0-.447.6 3.587 3.587 0 0 1 .037.457c-.033.252-.267.422-.388.645a1.156 1.156 0 0 0 .226 1.223c.273.342.642.606.923.946a2.445 2.445 0 0 1 .51 1.968 1.561 1.561 0 0 0-.05.411 1.181 1.181 0 0 0 .354.639 29.5 29.5 0 0 1 2.231 2.968 8.017 8.017 0 0 1 .549.941 5.7 5.7 0 0 0 .5.994 2.625 2.625 0 0 0 .74.635 5.228 5.228 0 0 0 2.37.765l-.484-1.2a1.379 1.379 0 0 1-.146-.667c.054-.433.49-.717.632-1.129a1.37 1.37 0 0 0-.025-.828c-.171-.609-.514-1.156-.7-1.761a3.574 3.574 0 0 1-.105-1.638 2.527 2.527 0 0 0 .076-.724c-.089-.736-.952-1.087-1.351-1.711a3.7 3.7 0 0 1-.394-1.363 4.3 4.3 0 0 0-.779-1.912 2.245 2.245 0 0 0-1.787-.911 3.611 3.611 0 0 0-1.074.269l-.907.33" class="prefix__cls-4" data-name="Path 617" transform="translate(-758.592 -383.666)"/>
        <g id="prefix__Group_129" data-name="Group 129" opacity="0.1" transform="translate(75.04 35.698)">
            <path id="prefix__Path_618" d="M893.806 436.495a4.351 4.351 0 0 0 .325 1.242c-.027-.147-.05-.294-.077-.439a5.475 5.475 0 0 0-.3-1.078c.02.091.036.18.052.275z" data-name="Path 618" transform="translate(-888.098 -436.22)"/>
            <path id="prefix__Path_619" d="M911.6 474.845a3.591 3.591 0 0 0 .105 1.638 4.234 4.234 0 0 0 .154.423 3.585 3.585 0 0 1-.012-1.258 2.529 2.529 0 0 0 .076-.724 1.128 1.128 0 0 0-.245-.564c-.011.164-.048.324-.078.485z" data-name="Path 619" transform="translate(-904.226 -470.773)"/>
            <path id="prefix__Path_620" d="M914.954 519.189a4.542 4.542 0 0 0-.188-.519 1.155 1.155 0 0 1-.036.544c-.142.411-.579.7-.632 1.129a1.368 1.368 0 0 0 .146.667c.032.08.064.161.094.241a.784.784 0 0 1 0-.1c.054-.433.49-.717.632-1.129a1.312 1.312 0 0 0-.016-.833z" data-name="Path 620" transform="translate(-906.527 -510.915)"/>
            <path id="prefix__Path_621" d="M855.867 493.851a2.634 2.634 0 0 1-.74-.636 5.676 5.676 0 0 1-.505-.994 7.93 7.93 0 0 0-.549-.941 29.548 29.548 0 0 0-2.23-2.969l-.086-.1a.973.973 0 0 0-.022.265 1.18 1.18 0 0 0 .354.639 29.523 29.523 0 0 1 2.231 2.968 8.026 8.026 0 0 1 .549.941 5.709 5.709 0 0 0 .5.994 2.625 2.625 0 0 0 .74.635 5.227 5.227 0 0 0 2.37.765l-.329-.809a5.233 5.233 0 0 1-2.283-.758z" data-name="Path 621" transform="translate(-850.033 -483.32)"/>
            <path id="prefix__Path_622" d="M834.652 447.165c-.282-.34-.65-.6-.923-.945l-.072-.1a1.37 1.37 0 0 0 .319.9c.273.347.642.606.923.946a2.351 2.351 0 0 1 .282.429 2.445 2.445 0 0 0-.529-1.23z" data-name="Path 622" transform="translate(-833.658 -445.189)"/>
        </g>
        <path id="prefix__Path_623" d="M371.082 346.943l-.682-.686a.362.362 0 0 0-.514 0L365.6 350.5l-1.812-1.825a.361.361 0 0 0-.511 0l-.689.682a.366.366 0 0 0 0 .514l2.751 2.772a.365.365 0 0 0 .514 0l5.226-5.186a.362.362 0 0 0 0-.514z" class="prefix__cls-14" data-name="Path 623" transform="translate(-331.763 -318.923)"/>
        <path id="prefix__Path_624" d="M572.082 346.943l-.682-.686a.362.362 0 0 0-.515 0L566.6 350.5l-1.812-1.825a.361.361 0 0 0-.511 0l-.689.682a.366.366 0 0 0 0 .514l2.751 2.772a.365.365 0 0 0 .514 0l5.226-5.186a.362.362 0 0 0 0-.514z" class="prefix__cls-14" data-name="Path 624" transform="translate(-513.857 -318.923)"/>
    </g>
</svg>
