<svg xmlns="http://www.w3.org/2000/svg" viewBox="0 0 172.01 184"><defs><style>.cls-1{fill:#0090e3;}.cls-2{fill:#313535;}.cls-3{fill:#fff;}.cls-4{fill:#ff4d54;}</style></defs><g id="Layer_2" data-name="Layer 2"><g id="Layer_1-2" data-name="Layer 1"><path class="cls-1" d="M172,79.93H87.73v22.26h54l-54,59.45V184H172V161.64H118l54-59.45Z"/><path class="cls-2" d="M33.48,33.82a50.24,50.24,0,0,1,13-4.29,5.74,5.74,0,0,1,.81,3.13,6.93,6.93,0,0,1-13.79,1.16Z"/><path class="cls-3" d="M62.22,30a9.93,9.93,0,0,1-3.59-1.63,1.67,1.67,0,0,1,.81.12,30,30,0,0,1,4.52.35,52.94,52.94,0,0,1,8.69,1.85c-1.74,0-3.48,0-5.22-.11A41.93,41.93,0,0,1,62.22,30Z"/><path class="cls-2" d="M72.17,41.25a4,4,0,0,1,3.72,4,4,4,0,1,1-8-.29A4,4,0,0,1,72.17,41.25Z"/><path class="cls-3" d="M84.7,118.52h27.69a60.79,60.79,0,0,1-54,35.1h-.58A56.83,56.83,0,0,1,17.5,135.2,65,65,0,0,1,4.63,115,63.94,63.94,0,0,1,0,90.59,18.22,18.22,0,0,1,.12,88,63.09,63.09,0,0,1,17.5,45.87c.92-.93,1.85-1.85,2.78-2.67.69-.69,1.5-1.39,2.2-2a55.15,55.15,0,0,1,6.72-5l8.11,24-1,.69a25,25,0,0,0-3.36,2.78A37.33,37.33,0,0,0,21,91.17a37.71,37.71,0,0,0,37.77,37.77h1.51A37.07,37.07,0,0,0,84.7,118.52Z"/><path class="cls-3" d="M80.64,61.28a19.56,19.56,0,0,0-4.4-3l9.85-22a45.62,45.62,0,0,1,6.83,4.41A63.37,63.37,0,0,1,111.58,63a15.18,15.18,0,0,1,.92,2h-28A28.52,28.52,0,0,0,80.64,61.28Z"/><path class="cls-4" d="M45.88,86v.23L44.72,87l-.58-.11a.62.62,0,0,1-.57-.35v-.12L32.91,63.71,22.48,41.24,16.22,27.91a5.12,5.12,0,0,1,2.32-6.49A4.84,4.84,0,0,1,25,23.74a1.71,1.71,0,0,1,.23.69L29.2,36.25l8.11,24Z"/><path class="cls-4" d="M100.45,27.56v.24a1.84,1.84,0,0,1-.23.57l-7.3,12.29L80.64,61.28,68.48,81.56v.23l-.35.46H68c0,.12-.23.23-.35.23l-1.85-1L76.24,58.27l9.85-22L89,29.65,91.53,24a5.18,5.18,0,0,1,2.78-2.66c.12,0,.35-.12.47-.12a4.22,4.22,0,0,1,3.13.23A4.84,4.84,0,0,1,100.45,27.56Z"/><path class="cls-4" d="M100.45,27.56a4.33,4.33,0,0,1-1.27.7c-.23.11-.46.11-.81.23-3.13.46-6.26.81-9.39,1.16-3.7.46-7.41.69-11.24.93-2.08.13-4,.11-6.14.11-1.49,0-3,0-4.48-.14a38.87,38.87,0,0,1-4.9-.55,9.93,9.93,0,0,1-3.59-1.63,3.46,3.46,0,0,1-.58-1.15,3,3,0,0,0,1.39,1.27,11.28,11.28,0,0,0,2.9.46A8.08,8.08,0,0,0,64,28.84a32.25,32.25,0,0,0,3.36-.23c3.24-.47,6.6-1.28,9.85-2.09a172.15,172.15,0,0,0,17.14-5.21c.12,0,.35-.12.47-.12.58-.23,1-.35,1.62-.58h.11A4.09,4.09,0,0,1,101.73,23,4.14,4.14,0,0,1,100.45,27.56Z"/><path class="cls-1" d="M47.27,32.66a6.93,6.93,0,0,1-13.79,1.16,3.88,3.88,0,0,1-.11-1.18,6.78,6.78,0,0,1,3.27-5.92,6.9,6.9,0,0,1,9.82,2.81A5.74,5.74,0,0,1,47.27,32.66Z"/><path class="cls-1" d="M75.89,45.29A4,4,0,0,1,68,46a4,4,0,1,1,7.93-.74Z"/><circle class="cls-1" cx="56.95" cy="70.26" r="4.01"/><circle class="cls-1" cx="53.65" cy="6.32" r="6.32"/><polygon class="cls-4" points="43.62 86.55 45.85 85.96 47.08 109.92 43.62 86.55"/><polygon class="cls-4" points="65.77 81.39 68.46 81.58 63.07 104.88 65.77 81.39"/></g></g></svg>