<svg xmlns="http://www.w3.org/2000/svg" width="13.864" height="14" viewBox="0 0 13.864 14">
    <path id="prefix__create" d="M12.423 6.75l-.49.814-1.633-.982.491-.814zm-5.856 4.8V6.761h1.9V8.4zm.545-6.69h.811l.423 1.268H6.69zm.405-2.219a.317.317 0 1 1 .317-.317.317.317 0 0 1-.316.317zM7.518 0l1.53 2.041-1.092 2.185h-.121V3.217a.951.951 0 1 0-.634 0v1.009H7.08L5.987 2.041zM3.091 4.9L3 4.966l-1.167.769-.107-.9a.317.317 0 0 0-.05-.137l-.349-.529.529-.349.349.529a.319.319 0 0 0 .106.1zM1.118 2.7l.387.587-.53.353L.5 2.921zM2.81 5.848l.79-.523 2.333 3.536v3.457L2.016 6.372zm5.522 7.687a.951.951 0 0 1-1.632-.972l.006-.01L9.1 8.584v-.009l.874-1.45.814.492.816.49zm5.739-8.291a2.048 2.048 0 0 1-.654.668l-.563.357-1.838-1.106.052-.666a2.036 2.036 0 0 1 1.162-1.68l2.028-.955.04.883a.309.309 0 0 0-.1 0l-.768.19A1.93 1.93 0 0 0 12.01 4.4a.317.317 0 0 0 .24.378.311.311 0 0 0 .069.008.317.317 0 0 0 .309-.248 1.3 1.3 0 0 1 .959-.981l.74-.184.033.729a2.032 2.032 0 0 1-.289 1.143zm0 0" transform="translate(-.5)" style="fill:#fff"/>
</svg>
