<svg xmlns="http://www.w3.org/2000/svg" width="13.188" height="14" viewBox="0 0 13.188 14">
    <defs>
        <style>
            .prefix__cls-1{fill:#fff}
        </style>
    </defs>
    <g id="prefix__super_admin" data-name="super admin" transform="translate(-13.766)">
        <path id="prefix__Path_26" d="M232.473 93.079c-.019-.354-.381-.294-.734-.294a3.128 3.128 0 0 1 .734.294z" class="prefix__cls-1" data-name="Path 26" transform="translate(-211.564 -90.047)"/>
        <path id="prefix__Path_27" d="M89.175 73.928a1.462 1.462 0 0 0-.907 2.609 3.166 3.166 0 0 1 2.093-2 1.464 1.464 0 0 0-1.186-.609z" class="prefix__cls-1" data-name="Path 27" transform="translate(-71.793 -71.775)"/>
        <path id="prefix__Path_28" d="M14.712 4.652a3.043 3.043 0 0 0 .214.514l-.451.451a.31.31 0 0 0 0 .439l.794.794a.312.312 0 0 0 .439 0l.45-.451c.068.036.142.058.212.088v-.016a4.621 4.621 0 0 1 .118-1.042 1.959 1.959 0 1 1 2.761-2.609 3.417 3.417 0 0 1 1.107.032 2.958 2.958 0 0 0-.191-.46l.451-.451a.309.309 0 0 0 0-.438L19.822.71a.309.309 0 0 0-.438 0l-.452.451a2.9 2.9 0 0 0-.515-.214V.31a.309.309 0 0 0-.31-.31h-1.123a.31.31 0 0 0-.31.31v.637a2.934 2.934 0 0 0-.515.214l-.45-.451a.31.31 0 0 0-.438 0l-.795.794a.311.311 0 0 0 0 .439l.451.451a2.967 2.967 0 0 0-.213.514h-.637a.31.31 0 0 0-.31.31v1.123a.31.31 0 0 0 .31.31z" class="prefix__cls-1" data-name="Path 28"/>
        <path id="prefix__Path_29" d="M283.973 247.784a1.6 1.6 0 1 0-1.608-2.754 5.769 5.769 0 0 1-.682 1.634 4.8 4.8 0 0 1 2.29 1.12z" class="prefix__cls-1" data-name="Path 29" transform="translate(-260.151 -237.673)"/>
        <path id="prefix__Path_30" d="M309.267 169.124a.335.335 0 0 0-.334-.335h-.687a3.177 3.177 0 0 0-.231-.556l.487-.487a.334.334 0 0 0 0-.473l-.856-.857a.334.334 0 0 0-.473 0l-.488.487a3.126 3.126 0 0 0-.556-.231v-.687a.334.334 0 0 0-.334-.334h-1.212a.33.33 0 0 0-.211.081 4.557 4.557 0 0 1 .158 1.207 5.8 5.8 0 0 1-.061.827 2.071 2.071 0 0 1 .72-.135 2.1 2.1 0 0 1 1.133 3.861 4.787 4.787 0 0 1 .976 1.627.343.343 0 0 0 .111.021.334.334 0 0 0 .237-.1l.857-.857a.336.336 0 0 0 0-.473l-.487-.487a3.162 3.162 0 0 0 .231-.556h.687a.335.335 0 0 0 .335-.335z" class="prefix__cls-1" data-name="Path 30" transform="translate(-282.313 -161.321)"/>
        <path id="prefix__Path_31" d="M30.963 329.612a4.049 4.049 0 0 0-3.478-2.724 2.491 2.491 0 0 1-3.864 0 4.049 4.049 0 0 0-3.479 2.724l-.287.845a.8.8 0 0 0 .754 1.053H30.5a.8.8 0 0 0 .754-1.053z" class="prefix__cls-1" data-name="Path 31" transform="translate(-5.858 -317.51)"/>
        <path id="prefix__Path_32" d="M120.842 115.078c0 1.661 1.154 3.444 2.578 3.444s2.58-1.783 2.58-3.444a2.578 2.578 0 1 0-5.158 0z" class="prefix__cls-1" data-name="Path 32" transform="translate(-104.03 -108.972)"/>
    </g>
</svg>
